<?xml version="1.0" encoding="utf-8"?>
<!-- Generator: Adobe Illustrator 24.1.1, SVG Export Plug-In . SVG Version: 6.00 Build 0)  -->
<svg version="1.1" id="Layer_1" xmlns="http://www.w3.org/2000/svg" xmlns:xlink="http://www.w3.org/1999/xlink" x="0px" y="0px"
	 viewBox="0 0 40 40" style="enable-background:new 0 0 40 40;" xml:space="preserve">
<style type="text/css">
	.st0{fill:#FFFFFF;}
</style>
<g>
	<g>
		<path class="st0" d="M4.3,12.4C7,7.6,11.1,4.6,16.6,3.6c2.6-0.5,5.1-0.3,7.5,0.4c3.4,1,6.2,2.8,8.5,5.6c1.1,1.4,0.8,1.2,2.3,0.7
			c0.8-0.3,1.7-0.6,2.5-0.9c0.2-0.1,0.4-0.2,0.6-0.1c0.2,0.2,0,0.5,0,0.7c-0.5,1.2-1,2.4-1.5,3.5c-0.7,1.7-1.4,3.4-2.1,5.1
			c-0.3,0.7-0.4,0.7-1.1,0.4c-3.1-1.5-6.1-2.9-9.2-4.4c-0.2-0.1-0.4-0.1-0.3-0.3c0-0.2,0.2-0.3,0.4-0.3c1.3-0.4,2.5-0.9,3.8-1.3
			c0.7-0.3,0.7-0.3,0.2-0.8c-4.7-5-12.7-5.1-17.5-0.1C7.6,15,6.5,18.8,7.5,23.2c0.8,3.5,2.8,6.1,5.9,7.8c5.2,2.9,11.5,1.6,15.2-2.6
			c0.5-0.6,1-1.3,1.4-2c0.2-0.4,0.5-0.5,0.9-0.3c0.9,0.5,1.8,0.9,2.8,1.4c0.8,0.4,0.9,0.6,0.4,1.4c-1,1.7-2.3,3.2-3.8,4.5
			c-4.7,3.7-9.9,5-15.7,3.3c-5.3-1.5-9.1-4.9-11.1-10.1C2.2,23.2,2,19.6,3,15.9C3.3,14.7,3.7,13.5,4.3,12.4z"/>
	</g>
</g>
</svg>
